<svg xmlns="http://www.w3.org/2000/svg" version="1.1" xmlns:xlink="http://www.w3.org/1999/xlink" xmlns:svgjs="http://svgjs.dev/svgjs" width="1440" height="560" preserveAspectRatio="none" viewBox="0 0 1440 560"><g mask="url(&quot;#SvgjsMask1000&quot;)" fill="none"><rect width="1440" height="560" x="0" y="0" fill="#0e2a47"></rect><path d="M720 711.73C835.43 716.36 951.98 675.25 1030.59 590.59 1106.89 508.45 1128.99 391.83 1121 280 1113.62 176.4 1061.8 85.08 989.25 10.75 915.64-64.66 825.26-125.31 720-130.79 609.57-136.53 498.8-97.57 421.21-18.79 344.13 59.48 313.05 170.18 315.33 280 317.58 387.37 359.94 488.25 433.38 566.62 509.51 647.85 608.79 707.28 720 711.73" fill="#1c538e"></path><path d="M720 559.36C794.69 562.35 870.11 535.75 920.97 480.97 970.34 427.82 984.64 352.36 979.47 280 974.69 212.97 941.17 153.87 894.22 105.78 846.59 56.99 788.11 17.74 720 14.2 648.54 10.48 576.87 35.69 526.66 86.66 476.79 137.31 456.68 208.94 458.16 280 459.61 349.48 487.02 414.75 534.54 465.46 583.8 518.02 648.04 556.47 720 559.36" fill="#2774c6"></path><path d="M720 406.98C753.95 408.34 788.23 396.25 811.35 371.35 833.79 347.19 840.29 312.89 837.94 280 835.77 249.53 820.53 222.67 799.19 200.81 777.54 178.63 750.96 160.79 720 159.18 687.52 157.49 654.94 168.95 632.12 192.12 609.45 215.14 600.31 247.7 600.98 280 601.64 311.58 614.1 341.25 635.7 364.3 658.09 388.19 687.29 405.67 720 406.98" fill="#488fdb"></path></g><defs><mask id="SvgjsMask1000"><rect width="1440" height="560" fill="#ffffff"></rect></mask></defs></svg>