<svg id="visual" viewBox="0 0 900 600" width="900" height="600" xmlns="http://www.w3.org/2000/svg" xmlns:xlink="http://www.w3.org/1999/xlink" version="1.1"><path d="M0 79L13.7 73C27.3 67 54.7 55 82 53C109.3 51 136.7 59 163.8 67C191 75 218 83 245.2 78C272.3 73 299.7 55 327 54C354.3 53 381.7 69 409 75C436.3 81 463.7 77 491 74C518.3 71 545.7 69 573 68C600.3 67 627.7 67 654.8 71C682 75 709 83 736.2 81C763.3 79 790.7 67 818 59C845.3 51 872.7 47 886.3 45L900 43L900 0L886.3 0C872.7 0 845.3 0 818 0C790.7 0 763.3 0 736.2 0C709 0 682 0 654.8 0C627.7 0 600.3 0 573 0C545.7 0 518.3 0 491 0C463.7 0 436.3 0 409 0C381.7 0 354.3 0 327 0C299.7 0 272.3 0 245.2 0C218 0 191 0 163.8 0C136.7 0 109.3 0 82 0C54.7 0 27.3 0 13.7 0L0 0Z" fill="#6198ff"></path><path d="M0 265L13.7 261C27.3 257 54.7 249 82 249C109.3 249 136.7 257 163.8 248C191 239 218 213 245.2 206C272.3 199 299.7 211 327 210C354.3 209 381.7 195 409 207C436.3 219 463.7 257 491 270C518.3 283 545.7 271 573 275C600.3 279 627.7 299 654.8 300C682 301 709 283 736.2 275C763.3 267 790.7 269 818 278C845.3 287 872.7 303 886.3 311L900 319L900 41L886.3 43C872.7 45 845.3 49 818 57C790.7 65 763.3 77 736.2 79C709 81 682 73 654.8 69C627.7 65 600.3 65 573 66C545.7 67 518.3 69 491 72C463.7 75 436.3 79 409 73C381.7 67 354.3 51 327 52C299.7 53 272.3 71 245.2 76C218 81 191 73 163.8 65C136.7 57 109.3 49 82 51C54.7 53 27.3 65 13.7 71L0 77Z" fill="#3c80ff"></path><path d="M0 487L13.7 476C27.3 465 54.7 443 82 433C109.3 423 136.7 425 163.8 429C191 433 218 439 245.2 431C272.3 423 299.7 401 327 389C354.3 377 381.7 375 409 375C436.3 375 463.7 377 491 382C518.3 387 545.7 395 573 402C600.3 409 627.7 415 654.8 421C682 427 709 433 736.2 421C763.3 409 790.7 379 818 386C845.3 393 872.7 437 886.3 459L900 481L900 317L886.3 309C872.7 301 845.3 285 818 276C790.7 267 763.3 265 736.2 273C709 281 682 299 654.8 298C627.7 297 600.3 277 573 273C545.7 269 518.3 281 491 268C463.7 255 436.3 217 409 205C381.7 193 354.3 207 327 208C299.7 209 272.3 197 245.2 204C218 211 191 237 163.8 246C136.7 255 109.3 247 82 247C54.7 247 27.3 255 13.7 259L0 263Z" fill="#0066ff"></path><path d="M0 547L13.7 539C27.3 531 54.7 515 82 507C109.3 499 136.7 499 163.8 497C191 495 218 491 245.2 489C272.3 487 299.7 487 327 481C354.3 475 381.7 463 409 454C436.3 445 463.7 439 491 439C518.3 439 545.7 445 573 452C600.3 459 627.7 467 654.8 474C682 481 709 487 736.2 486C763.3 485 790.7 477 818 482C845.3 487 872.7 505 886.3 514L900 523L900 479L886.3 457C872.7 435 845.3 391 818 384C790.7 377 763.3 407 736.2 419C709 431 682 425 654.8 419C627.7 413 600.3 407 573 400C545.7 393 518.3 385 491 380C463.7 375 436.3 373 409 373C381.7 373 354.3 375 327 387C299.7 399 272.3 421 245.2 429C218 437 191 431 163.8 427C136.7 423 109.3 421 82 431C54.7 441 27.3 463 13.7 474L0 485Z" fill="#0059dd"></path><path d="M0 601L13.7 601C27.3 601 54.7 601 82 601C109.3 601 136.7 601 163.8 601C191 601 218 601 245.2 601C272.3 601 299.7 601 327 601C354.3 601 381.7 601 409 601C436.3 601 463.7 601 491 601C518.3 601 545.7 601 573 601C600.3 601 627.7 601 654.8 601C682 601 709 601 736.2 601C763.3 601 790.7 601 818 601C845.3 601 872.7 601 886.3 601L900 601L900 521L886.3 512C872.7 503 845.3 485 818 480C790.7 475 763.3 483 736.2 484C709 485 682 479 654.8 472C627.7 465 600.3 457 573 450C545.7 443 518.3 437 491 437C463.7 437 436.3 443 409 452C381.7 461 354.3 473 327 479C299.7 485 272.3 485 245.2 487C218 489 191 493 163.8 495C136.7 497 109.3 497 82 505C54.7 513 27.3 529 13.7 537L0 545Z" fill="#004cbb"></path></svg>